<svg xmlns="http://www.w3.org/2000/svg" viewBox="0 0 22.22 22.22"><defs><style>.cls-1{fill:#cf4768;}.cls-2{fill:#de755c;}.cls-3{fill:#e07a5a;}.cls-4{fill:#efaf4c;}.cls-5{fill:#e89850;}.cls-6{fill:#eda64d;}.cls-7{fill:#cb3b6c;}.cls-8{fill:#f3bf47;}.cls-9{fill:#f0b64a;}.cls-10{fill:#d55664;}.cls-11{fill:#e38956;}.cls-12{fill:#d25465;}.cls-13{fill:#c6356f;}.cls-14{fill:#f4c448;}.cls-15{fill:#cc4369;}.cls-16{fill:#e5918d;}.cls-17{fill:#f7d088;}.cls-18{fill:#dd6e71;}.cls-19{fill:#df8491;}.cls-20{fill:#f9d983;}.cls-21{fill:#edac8c;}.cls-22{fill:#f7d089;}.cls-23{fill:#dd8596;}.cls-24{fill:#fdfdfd;}.cls-25{fill:#d65763;}.cls-26{fill:#d75a64;}.cls-27{fill:#df8794;}.cls-28{fill:#e08692;}.cls-29{fill:#df8792;}.cls-30{fill:#dc8095;}.cls-31{fill:#e38658;}.cls-32{fill:#edae87;}.cls-33{fill:#e6958c;}.cls-34{fill:#d9665f;}.cls-35{fill:#e58b54;}.cls-36{fill:#e38756;}.cls-37{fill:#ecac85;}.cls-38{fill:#ecaf86;}.cls-39{fill:#e9a28d;}.cls-40{fill:#f3c086;}.cls-41{fill:#f1c086;}.cls-42{fill:#d14e66;}.cls-43{fill:#df8998;}.cls-44{fill:#dd8296;}.cls-45{fill:#dd8195;}.cls-46{fill:#eaa34e;}.cls-47{fill:#e48c54;}.cls-48{fill:#d45763;}.cls-49{fill:#d45565;}.cls-50{fill:#dd7061;}.cls-51{fill:#ea9f51;}.cls-52{fill:#dd6e5f;}.cls-53{fill:#f1b84d;}.cls-54{fill:#e48d5a;}.cls-55{fill:#e48c82;}.cls-56{fill:#dc6b68;}.cls-57{fill:#efb16e;}.cls-58{fill:#f1b989;}.cls-59{fill:#ecad9a;}.cls-60{fill:#e38d8f;}.cls-61{fill:#e28c8f;}</style></defs><title>IntegraCommerce</title><g id="Camada_2" data-name="Camada 2"><g id="Camada_1-2" data-name="Camada 1"><path class="cls-1" d="M21,16.13a8.54,8.54,0,0,1-1.14,1.8c-.21,0-.1-.15-.06-.24.17-.36.35-.71.53-1.07-.2.39-.39.79-.6,1.18a1.5,1.5,0,0,1-.41.52l0,0-.05,0,0,0-.08,0-.37.18-.17.11c-.63.23-1.23.54-1.87.77l-.14,0h0c-.16.06-.3.14-.45.2a.68.68,0,0,1-.22.05c-.15,0-.26-.07-.33-.27,0,0,0,0,0,0a5.08,5.08,0,0,0-.17-.51h0l-.05-.14c-.51-1.51-1-3-1.53-4.54a.9.9,0,0,1-.07-.27.29.29,0,0,1,0-.13s0,0,0,0A2.18,2.18,0,0,1,14.86,13H15a1.78,1.78,0,0,1,.55.18c1.51.63,3,1.31,4.52,1.94l.09,0h0a1.84,1.84,0,0,1,.71.5A.4.4,0,0,1,21,16.13Z"/><path class="cls-2" d="M21.52,7.29a1.76,1.76,0,0,1-.58.93h0a.08.08,0,0,0-.07,0c-.15.05-.19.19-.24.34a.93.93,0,0,0,0,.13s0,0,0,0a1.11,1.11,0,0,1-.16.29s0,0,0,0c-.16.22-.39.23-.87.14a8.15,8.15,0,0,0-.83-.17.14.14,0,0,0-.09,0,.34.34,0,0,0-.14,0,1,1,0,0,1-.28-.11,2.23,2.23,0,0,0-2.44.14.85.85,0,0,1-.29.17l-.12,0-.07,0h0a7.48,7.48,0,0,1-1.34,0H12.82c-.42,0-.49-.12-.39-.54,0-.13.07-.25.1-.38a.65.65,0,0,0,0-.13v0a2.32,2.32,0,0,1,.49-.75l.1-.05.07,0c1-.49,2-.93,3-1.39l.09,0h0a2.72,2.72,0,0,0,.35-.16,3.09,3.09,0,0,1,.92-.38h.09a.68.68,0,0,1,.2,0s0-.06,0-.12a.13.13,0,0,1,0-.06h0c.06-.12.19-.1.27-.16L18.4,5h0l.35-.18h0A2.12,2.12,0,0,0,19,4.67c.31-.07.51-.45.9-.33A8.71,8.71,0,0,1,21.52,7.29Z"/><path class="cls-3" d="M10.44,11.65a.22.22,0,0,0,0-.08h0c-.11-.14-.25-.08-.38,0l-.1.05-.18.08-.3.15-.1,0c-.39.26-.87.35-1.25.64h0a.21.21,0,0,0,0,.11s.06.06.13.07c-.34.06-.68.14-1,.19h0l-.21,0H6.85c-1.6.49-3.22.94-4.82,1.41H2l-.14,0-.11,0c-.06.05-.16.1-.1.2l0,0a.88.88,0,0,0-.41.1.53.53,0,0,0-.26.37l0,.13a.75.75,0,0,0,0,.42,9.44,9.44,0,0,0,1.72,2.68.63.63,0,0,0,.73,0A1.17,1.17,0,0,1,4,18.08h.05l.06,0a1.45,1.45,0,0,0,.52-.4,10.9,10.9,0,0,0,1.54-1.42s.06-.07.07-.12l0,0,.11-.18s0,0,0,0c.08-.16,0-.18-.29-.26s-.42-.08-.62-.13a3,3,0,0,1,.52.09c.47.09.56.11.7-.18a.21.21,0,0,0,.1.27l.06,0,.13,0a5.26,5.26,0,0,0,1.17-.35l0,0h0a1,1,0,0,0,.15-.48,2.83,2.83,0,0,1,1.51-2.12.45.45,0,0,0,.24-.21h0s-.19-.09,0-.1a.26.26,0,0,0,.19-.1h0a1.25,1.25,0,0,0,.08-.12h0A.68.68,0,0,0,10.44,11.65Zm-1.66,1-.3,0A.63.63,0,0,1,8.78,12.61ZM5.42,15.5h0s0,0,0,0h0Z"/><path class="cls-4" d="M14.42.69a9.18,9.18,0,0,1-1.06,1.1A2.48,2.48,0,0,0,13.1,2a1.77,1.77,0,0,0-.52.57s0,0,0,0a1.47,1.47,0,0,1-.06.14.4.4,0,0,1-.27.29L12,3.19a1.38,1.38,0,0,0-.43.47l0,0a.66.66,0,0,0-.09.19.72.72,0,0,1-.23.31h0a.31.31,0,0,1-.1,0c-.32.07-.62.16-.94.21h0l-.14,0-.37,0c-1.12.13-2.24.27-3.35.42a1.35,1.35,0,0,1-.4,0,.35.35,0,0,1-.28-.14.11.11,0,0,1,0-.08,0,0,0,0,1,0,0,.87.87,0,0,1,.23-.2c.91-.63,1.8-1.28,2.71-1.9a.34.34,0,0,1,.11-.07h0s0,0,0,0a.25.25,0,0,1,.22,0,1.22,1.22,0,0,1,0-.26v0a2,2,0,0,1,0-.49.29.29,0,0,0,0-.09A1.36,1.36,0,0,1,9,1.39c0-.13.05-.25.08-.38s.06-.24.08-.37v0h0a2.3,2.3,0,0,1,0-.26l0-.1A.3.3,0,0,1,9.41.13,11.23,11.23,0,0,1,14,.37a1.17,1.17,0,0,1,.44.16A.13.13,0,0,1,14.42.69Z"/><path class="cls-5" d="M17.48,5.26s0,0,0,0a.17.17,0,0,1,0,.11c-.1.14-.26.09-.4.06H17l-.87-.15c-.9-.14-1.78-.32-2.66-.47l-.65-.11-.1,0-.16,0-.18,0h-.09a3.93,3.93,0,0,1-1.09-.43s0,0,0,0l.26-.34c.13-.4.49-.61.79-.87a.67.67,0,0,0,.25-.25c.16-.44.55-.67.87-1L14.43.53A3.7,3.7,0,0,1,15.58,1c.3.81.75,1.54,1.11,2.32a1.61,1.61,0,0,1,.22.6,1.63,1.63,0,0,0,.07.3c0,.1.09.19.13.29l.14.25.13.27a.91.91,0,0,1,.07.14A.32.32,0,0,1,17.48,5.26Z"/><path class="cls-6" d="M3.63,11.52h0a1.26,1.26,0,0,0-.53.54,17,17,0,0,1-1.29,2l0,0a.74.74,0,0,0-.13.12,1.52,1.52,0,0,1-.22.22s-.07-.06-.11-.07,0,0,0,0a.26.26,0,0,0,0,.13.65.65,0,0,1,0,.31.72.72,0,0,1-.26.37.66.66,0,0,1-.17.12A10.63,10.63,0,0,1,.51,7.89c.12-.09.22,0,.3.06.63.64,1.31,1.22,1.93,1.88l0,0,0,0a2.79,2.79,0,0,0,.69,1.33A.33.33,0,0,1,3.63,11.52Z"/><path class="cls-7" d="M15.65,21.22A10.54,10.54,0,0,1,8.9,22a.68.68,0,0,1-.17-.5c0-.27.1-.37.35-.23.48.19,1,.36,1.44.59-.43-.22-.88-.36-1.31-.55a.65.65,0,0,1-.27-.15c-.07-.24.13-.33.27-.44.52-.41,1.07-.78,1.61-1.19.1-.06.2-.16.34-.12s.33.05.37,0a3.42,3.42,0,0,1,1.06.05c.69.1,1.39.08,2.08.2a2.43,2.43,0,0,0,.47.08c.54,0,.55,0,.65.57A3.61,3.61,0,0,1,15.65,21.22Z"/><path class="cls-8" d="M8.63,2.71,5.7,4.78c-.13,0-.25-.2-.37,0s-.22.09-.29,0C4.66,4.25,4,4,3.6,3.49c-.08-.12-.22-.2-.18-.37A9.92,9.92,0,0,1,6.64,1a.4.4,0,0,1,.3.15c.11.15.16.27-.09.35L6,1.72c.26-.08.52-.15.78-.24s.32,0,.23.21a2,2,0,0,1,.52-.63c-.1.08-.22.22-.33.05s0-.37.2-.48A9.26,9.26,0,0,1,9.14.18c.26.1.13.3.1.46-.09.52-.26,1-.3,1.58C8.92,2.45,8.68,2.52,8.63,2.71Z"/><path class="cls-9" d="M5.15,5.49a.24.24,0,0,0,0,.08.31.31,0,0,1,0,.09,1.07,1.07,0,0,0-.06.43h0c0,.46-.24.89-.28,1.36v0c0,.13-.16.15-.28.18A2.21,2.21,0,0,0,2.87,9.54c0,.11,0,.24-.11.31l0,0A21.53,21.53,0,0,1,.88,8.15c-.1-.1-.19-.25-.37-.26a8.28,8.28,0,0,1,1.1-2.51.4.4,0,0,1,.21-.16l.08,0H2c.85,0,1.69-.14,2.54-.18h.32C5.12,5.05,5.18,5.17,5.15,5.49Z"/><path class="cls-10" d="M8.54,21.91a10.19,10.19,0,0,1-4.15-2,3.57,3.57,0,0,1-.54-1.11.38.38,0,0,1,0-.37.4.4,0,0,1,.47-.28c1,0,2-.14,3.05-.09A3.66,3.66,0,0,0,8.14,18c.27-.05.49,0,.51.35a9.15,9.15,0,0,1,0,3,.9.9,0,0,0,0,.56A.07.07,0,0,1,8.54,21.91Z"/><path class="cls-11" d="M16.85,3.83C16.44,3,16,2.19,15.62,1.36c0-.12-.25-.25,0-.4a10.33,10.33,0,0,1,3.79,2.7,3.46,3.46,0,0,1,.53.68c-.34.06-.56.33-.88.44a1.74,1.74,0,0,0-.78.36l-.17.06c-.44.33-.47.32-.7-.15-.16-.3-.31-.6-.46-.91C16.85,4,16.75,4,16.85,3.83Z"/><path class="cls-12" d="M20.92,8.15c.3-.21.29-.65.6-.86a10.38,10.38,0,0,1,.65,4.9,6.76,6.76,0,0,1-.48,2.17,30.44,30.44,0,0,1-1-3.53,3.09,3.09,0,0,0-.28-.94,1,1,0,0,1,.08-1A3.53,3.53,0,0,1,20.92,8.15Z"/><path class="cls-13" d="M15.65,21.22c-.16-.3,0-.58.07-.87a.44.44,0,0,1,.32-.63c.25-.1.48-.24.74-.32l1.56-.7a.36.36,0,0,1,.25,0c.17-.23.46-.24.69-.37s.18,0,.16.11A10.22,10.22,0,0,1,15.65,21.22Z"/><path class="cls-14" d="M1.78,5.11A8.27,8.27,0,0,1,3.25,3.29c.19-.08.28.08.39.18a9.89,9.89,0,0,0,.94.89c.21.14.08.42.26.58s-.06.14-.16.14c-.88,0-1.77.13-2.65.17C1.93,5.25,1.78,5.31,1.78,5.11Z"/><path class="cls-15" d="M20.75,10.84a22.53,22.53,0,0,0,.82,2.77,1.94,1.94,0,0,1,.12.75,4.4,4.4,0,0,1-.35,1.06c-.32.25-.47.2-.54-.19-.14-.8-.19-1.62-.26-2.44,0-.41-.09-.82-.16-1.23s-.2-1,0-1.57A3.13,3.13,0,0,1,20.75,10.84Z"/><path class="cls-16" d="M8.54,21.91l.08,0a.3.3,0,0,0-.08-.41c-.07-.51.13-1,.1-1.52s-.1-1.05-.09-1.59c0-.25-.15-.27-.34-.26a36.51,36.51,0,0,1-3.91.15c-.28,0-.18.25-.34.27a1.1,1.1,0,0,0-.87.26,1.22,1.22,0,0,1-.36-.42,1.24,1.24,0,0,0,.74-.14A.86.86,0,0,1,4.05,18a1.39,1.39,0,0,0,.83,0c1-.15,2,0,2.92-.14.33,0,.55-.3.87-.32.08,0,.14,0,.18.06a.58.58,0,0,0,.4.55,3.77,3.77,0,0,1,.72.37c.07.05.16.11.11.2s-.14.09-.23.07a3,3,0,0,1-.66-.3c-.23-.12-.38-.14-.36.19A8.26,8.26,0,0,0,9,21.12l.25.11c0,.07,0,.12-.08.07-.25-.08-.42-.09-.31.27A2.7,2.7,0,0,1,8.9,22,.39.39,0,0,1,8.54,21.91Z"/><path class="cls-17" d="M10.19,4.35a.36.36,0,0,1,0,.11c-.08.16-.26.17-.44.2H9.52c-1,.07-1.95.23-2.93.36a5.76,5.76,0,0,0-.82.11.66.66,0,0,0-.56.57.67.67,0,0,1-.15.38h0L5,6.16c-.2-.26,0-.48.07-.72s0-.33-.21-.31c-1.08,0-2.16.11-3.24.25a.38.38,0,0,1,.17-.27.27.27,0,0,0,.12.09.66.66,0,0,0,.28,0L4.52,5h0l.23,0a3.12,3.12,0,0,0-.65-1l0,0,0,0a2,2,0,0,0-.31-.28l0,0-.47-.35.17-.17a5.13,5.13,0,0,0,1,1,2,2,0,0,1,.7.64c.08.12.18.14.26,0a1.26,1.26,0,0,1,.22-.33.33.33,0,0,0,.08.35l.06,0c.18.18.39.07.59,0Z"/><path class="cls-18" d="M3.09,18.79c.17-.51.54-.31.87-.26-.11.31.14.52.22.78a6.26,6.26,0,0,0,.21.61A7,7,0,0,1,3.09,18.79Z"/><path class="cls-19" d="M20.47,11.53a3.32,3.32,0,0,1,.18,1.09c.11.85.19,1.71.26,2.56,0,.35.16.4.43.24a1.71,1.71,0,0,1-.33.71c-.09-.55-.51-.74-1-.88,0-.15.11-.17.21-.15.45.1.38-.22.35-.46-.09-.9-.19-1.79-.26-2.69a.81.81,0,0,1,0-.38C20.38,11.52,20.42,11.5,20.47,11.53Z"/><path class="cls-20" d="M7.42.63A1.88,1.88,0,0,0,7.3.81c-.06.09-.09.21,0,.28S7.47,1,7.54,1s.13-.15.3-.16c-.36.42-.71.79-1,1.21L7,1.51c-.45,0-.83.31-1.32.31a2.49,2.49,0,0,1,.8-.31c.15-.06.39,0,.43-.21s-.22-.2-.3-.34A1.86,1.86,0,0,1,7.42.63Z"/><path class="cls-21" d="M.83,15.26c.16-.28.49-.49.37-.89.23-.06.33-.31.53-.43.1.19-.06.32-.1.47s.05.05,0,0,0,0,0,0,.32-.19.42.08a.48.48,0,0,0-.37.12l.22.1c-.7.09-.84.25-.9,1A.64.64,0,0,1,.83,15.26Z"/><path class="cls-22" d="M8.63,2.71A8.84,8.84,0,0,0,9.19.62c0-.15.09-.31,0-.44a.27.27,0,0,1,.27,0c-.14.67-.3,1.34-.41,2a.79.79,0,0,0,.26.67C9,2.72,8.83,2.43,8.63,2.71Z"/><path class="cls-23" d="M19.44,18.44a.16.16,0,0,0-.16-.07.07.07,0,0,1-.11,0c0-.12.33-.09.17-.31a.41.41,0,0,1,0-.07c.75-.26.65-1.1,1.06-1.58l.11-.08a9.3,9.3,0,0,1-.55,1.23c0,.12-.21.22-.07.38A1.18,1.18,0,0,1,19.44,18.44Z"/><path class="cls-24" d="M6.56,10.84a.42.42,0,0,1-.28.32A1.86,1.86,0,0,1,3.61,11a1.06,1.06,0,0,1-.42-.78,1.83,1.83,0,0,1,1.29-2.3A1.78,1.78,0,0,1,6.8,9.19,1.66,1.66,0,0,1,6.56,10.84Z"/><path class="cls-24" d="M11.46,6.52c-.06.21-.16.41-.42.4a.39.39,0,0,1-.41-.41A.38.38,0,0,1,11,6.1.43.43,0,0,1,11.46,6.52Z"/><path class="cls-24" d="M12.46,15.75a1.49,1.49,0,0,1-1.93.87.4.4,0,0,1-.34-.16,1.24,1.24,0,0,1-.52-.61,1.42,1.42,0,0,1,.18-1.63,1.46,1.46,0,0,1,1.66-.46A1.5,1.5,0,0,1,12.46,15.75Z"/><path class="cls-24" d="M17.78,12.51a1.71,1.71,0,0,1-2.33-.95,1.67,1.67,0,0,1,.79-2.2,1.46,1.46,0,0,1,1.64,0,1.41,1.41,0,0,1,.72.76A1.71,1.71,0,0,1,17.78,12.51Z"/><path class="cls-24" d="M15.12,9.45H15a2.9,2.9,0,0,0-.45,1.94.26.26,0,0,1-.07.17.47.47,0,0,1-.15.13l-.06,0c-.33.27-.71.48-1,.77a.64.64,0,0,1-.9.1s0,0,0,0l0,0c-.1-.06-.23-.09-.33-.15l-.2,0a1.42,1.42,0,0,0,.52.19c.21.09.38.43.62.25a12.48,12.48,0,0,0,1.79-1.37A3,3,0,0,1,15.12,9.45ZM13.41,6.18a.47.47,0,0,1-.1-.1v.86a1.57,1.57,0,0,1,.11-.52h0C13.42,6.33,13.41,6.26,13.41,6.18Zm-.67-1.37-.14,0a2.7,2.7,0,0,1,.71,1.29h.08A2.43,2.43,0,0,0,12.74,4.81ZM9.22,7.94C9.1,7.77,9,7.86,8.87,8L7.41,9a.41.41,0,0,0-.16.45A2.33,2.33,0,0,1,7,10.84h.09a1.9,1.9,0,0,0,.27-1.23A.62.62,0,0,1,7.58,9l1.21-.9c.11-.09.27-.2.38-.07a12.89,12.89,0,0,0,1.1.85.3.3,0,0,1,.09-.15A3,3,0,0,1,9.22,7.94ZM7,10.84l-.18.26.11,0,.1-.15A.12.12,0,0,1,7,10.84ZM4.65,12a3.62,3.62,0,0,1,.66.09,1.66,1.66,0,0,0,.54-.14s0-.08.1-.12A3.58,3.58,0,0,1,4.65,12ZM19.37,9.92a.47.47,0,0,0-.06-.09v0a2.75,2.75,0,0,0-.36-.53h0l0,0-.06-.06,0,0a.41.41,0,0,0-.13-.1.72.72,0,0,0-.19-.11,2.47,2.47,0,0,0-3,.16,1.93,1.93,0,0,1-.21.17h0a.73.73,0,0,0-.16.14.08.08,0,0,0-.05.05h0a2.9,2.9,0,0,0-.45,1.94.26.26,0,0,1-.07.17.47.47,0,0,1-.15.13l-.06,0c-.33.27-.71.48-1,.77a.64.64,0,0,1-.9.1s0,0,0,0l0,0c-.1-.06-.23-.09-.33-.15a.35.35,0,0,1-.11-.1h0v0c0-.05,0-.09,0-.14s0-.16,0-.23,0-.16,0-.24q0-.82,0-1.65c0-.29,0-.58,0-.88a.47.47,0,0,1,.32-.47,1.31,1.31,0,0,0,.42-.31.81.81,0,0,0,.17-.23c.14-.21.29-.41.44-.61l.1-.15a1.07,1.07,0,0,0,.17-.49c0-.15,0-.3,0-.45v0c0-.08,0-.15,0-.23v0a.19.19,0,0,0,0-.07,2.43,2.43,0,0,0-.65-1.26l-.05,0h0a.38.38,0,0,0-.13-.09c-.09,0-.2-.08-.3-.13a3.73,3.73,0,0,0-1-.34l-.07,0a3.4,3.4,0,0,0-1,.18.8.8,0,0,1-.19.13l-.26.11a.33.33,0,0,0-.22.08l-.15.12A2.3,2.3,0,0,0,8.65,6a1.06,1.06,0,0,1-.44.66,10.63,10.63,0,0,0-1.14.86.7.7,0,0,1-1,.1,1.36,1.36,0,0,0-1.31-.2h0a2.33,2.33,0,0,0-2,2.36.07.07,0,0,0,0,.05,2.7,2.7,0,0,0,.87,1.65c.25.4.69.43,1.08.54H5l.27,0a1.66,1.66,0,0,0,.54-.14l.06,0h0a1.86,1.86,0,0,0,1-.73l0,0,0-.05.1-.15a.35.35,0,0,1,.05-.08h0a1.9,1.9,0,0,0,.27-1.23A.62.62,0,0,1,7.58,9l1.21-.9c.11-.09.27-.2.38-.07a12.89,12.89,0,0,0,1.1.85l0,0a1.44,1.44,0,0,1,0,.46c0,.59,0,1.19,0,1.78h0c0,.13,0,.26,0,.38h0a.57.57,0,0,0,0,.13,1,1,0,0,1,0,.62h0a.44.44,0,0,1-.22.2h0c.25,0,.32-.14.33-.35h0a.68.68,0,0,0,0-.54c0-.86,0-1.71,0-2.57,0-.11,0-.23-.07-.32a3,3,0,0,1-1.14-.82C9.1,7.77,9,7.86,8.87,8L7.41,9a.41.41,0,0,0-.16.45A2.33,2.33,0,0,1,7,10.84l-.18.26a2.68,2.68,0,0,1-.86.7,3.58,3.58,0,0,1-1.3.17,3.29,3.29,0,0,1-1-.44h0a.33.33,0,0,0-.14-.3A2.79,2.79,0,0,1,2.8,9.89l0,0c.1-.07.09-.2.11-.31A2.21,2.21,0,0,1,4.5,7.66c.12,0,.23,0,.28-.18h0a2.5,2.5,0,0,1,1.59.47c.16.14.27.08.4,0L8.52,6.58a.41.41,0,0,0,.21-.3,2.34,2.34,0,0,1,.92-1.62h.06c.18,0,.36,0,.44-.2.32,0,.62-.14.94-.21a.31.31,0,0,0,.1,0,3.93,3.93,0,0,0,1.09.43h.09a1.14,1.14,0,0,0,.23.15,2.7,2.7,0,0,1,.71,1.29v.86c-.05.16-.09.33-.14.49l-.1.05a2.32,2.32,0,0,0-.49.75v0a1.8,1.8,0,0,1-.59.36c-.26.08-.32.22-.32.47,0,1,0,2,0,3,0,.11-.06.26.07.35a1.42,1.42,0,0,0,.52.19c.21.09.38.43.62.25a12.48,12.48,0,0,0,1.79-1.37,3,3,0,0,1,.45-2.08l.19-.2.12,0a.85.85,0,0,0,.29-.17,2.23,2.23,0,0,1,2.44-.14,1,1,0,0,0,.28.11.34.34,0,0,1,.14,0l.17.15.09.09c.14.2.28.41.41.62a2.43,2.43,0,0,1-.71,2.91,2.38,2.38,0,0,1-3,0c-.14-.09-.22-.09-.33,0L15,13h-.09a2.18,2.18,0,0,0-1.11.87c-.14.06-.16.16-.1.33a2.79,2.79,0,0,1-.85,3.21,2.88,2.88,0,0,1-3.55,0A3.22,3.22,0,0,1,8.2,15.36h0a1,1,0,0,0,.15-.48,2.83,2.83,0,0,1,1.51-2.12.45.45,0,0,0,.24-.21h0A2.91,2.91,0,0,0,8.2,15.33s0,0,0,.05a.49.49,0,0,0,0,.51,4.23,4.23,0,0,0,1,1.52l.06.06,0,0a2.89,2.89,0,0,0,3.63,0s0,0,0,0,0,0,0,0a2.89,2.89,0,0,0,.9-3.14.9.9,0,0,1-.07-.27.25.25,0,0,1,.07-.17,6.59,6.59,0,0,1,1-.77A.71.71,0,0,1,15,13a1,1,0,0,1,.9.13,2.42,2.42,0,0,0,2.8-.35A2.51,2.51,0,0,0,19.37,9.92Z"/><path class="cls-25" d="M20.27,15.18h-.09a.16.16,0,0,0-.14.08l-4.77-2.07a3.06,3.06,0,0,0-.41-.1L15,13l.27-.21c.11-.1.19-.1.33,0a2.38,2.38,0,0,0,3,0,2.43,2.43,0,0,0,.71-2.91.41.41,0,0,1,.05-.09,1.07,1.07,0,0,1,.81-.41.25.25,0,0,1,.18.13v0a.08.08,0,0,1,0,.07.13.13,0,0,1,0,.06v0a3.73,3.73,0,0,0,0,.47h0a5.91,5.91,0,0,1,0,1.33h0c0,.21.05.43.07.64s.05.45.08.68c.05.6.09,1.19.16,1.78a.13.13,0,0,1,0,.06v0s0,.07,0,.1C20.78,15.32,20.75,15.32,20.27,15.18Z"/><path class="cls-26" d="M15.57,19.52a.08.08,0,0,1,0,0s0,0,0,0,0,0-.06,0-.14-.1-.21-.15a2.05,2.05,0,0,0-.42-.36l-.08,0h0a.4.4,0,0,1-.29-.27l-.12-.18a1.36,1.36,0,0,0-.52-.46l0,0s-.05,0-.09,0c-.31-.13-.49-.41-.75-.6l-.07-.05a2.79,2.79,0,0,0,.85-3.21c-.06-.17,0-.27.1-.33l.06,0,1.08,3.27c.19.56.38,1.11.58,1.67a.09.09,0,0,0,0,.06c0,.13.08.25.09.37S15.64,19.45,15.57,19.52Z"/><path class="cls-27" d="M14.68,19c.15-.17.23,0,.3.08s.3.36.49.58c.14-.38-.23-.58,0-.84.1.3.11.69.32.86s.51-.15.79-.23a1.36,1.36,0,0,1,.21,0,2,2,0,0,1-.64.34.64.64,0,0,0-.42.61c-.05-.46-.32-.59-.75-.53-.09,0-.19-.05-.28-.08.2-.21.22-.21.63,0C15.13,19.44,14.79,19.29,14.68,19Z"/><path class="cls-28" d="M17.63,16.44l-1.11-1.18-.1.09,1.11,1.19Z"/><path class="cls-29" d="M15.11,14l1.1,1.21.06-.06-1.1-1.22Z"/><path class="cls-28" d="M18,16.67l1,1.11.11-.1-1-1.1Z"/><path class="cls-30" d="M19.17,18.36h.11l-.69.33C18.68,18.42,18.94,18.4,19.17,18.36Z"/><path class="cls-31" d="M15.45,9.1l-.14.15-.19.2H15c-.63.06-1.25,0-1.87,0s-.56,0-.42.53.28,1,.4,1.49c0,.19.11.36.35.38l.1.06h0c.21.18-.24.26-.19.42-.26,0-.48.19-.74.22-.05,0-.07-.05-.07-.1h0v0s.06-.06.08-.1a3.48,3.48,0,0,1-.73.07l-.2,0c-.13-.09-.07-.24-.07-.35,0-1,0-2,0-3,0-.25.06-.39.32-.47a1.8,1.8,0,0,0,.59-.36l.13-.1c-.06.22-.09.44-.16.66s-.09.39.25.38c.73,0,1.46,0,2.2,0A1.5,1.5,0,0,0,15.45,9.1Z"/><path class="cls-5" d="M16.77,5.76l0,0c-.1.14-.3.14-.4.28L13.14,7.55l0-.12c.05-.16.09-.33.14-.49a1.57,1.57,0,0,1,.11-.52h0a.41.41,0,0,1,.25-.21h0c.19-.06.39-.07.59-.12L14.68,6l1.54-.3.12,0C16.49,5.65,16.65,5.6,16.77,5.76Z"/><path class="cls-32" d="M16.7,5.7l-3.09.63c-.11,0-.17.06-.19.13a.26.26,0,0,0,0,.16c0,.11,0,.23-.08.32V6.08h.08a20.41,20.41,0,0,0,2.46-.43c.28,0,.56-.12.84-.15-1.32-.19-2.63-.48-4-.68l-.14,0a1.14,1.14,0,0,1-.23-.15.43.43,0,0,1-.12-.11c1,.06,1.89.31,2.83.45.76.12,1.52.27,2.32.41a10.2,10.2,0,0,0-.51-1.15c-.06-.13-.23-.26,0-.41a3.42,3.42,0,0,0,.13.34c0,.1.09.19.13.29l.14.25.13.27a.91.91,0,0,1,.07.14.25.25,0,0,1,0,.07c.15.32.31.07.48,0h0a.11.11,0,0,1,.08,0c-.06.11,0,.18.2.26a4.88,4.88,0,0,0-1.93.63A.14.14,0,0,1,16.38,6h0C16.47,5.88,16.65,5.88,16.7,5.7Z"/><path class="cls-33" d="M20.91,8.23s0-.05,0-.08c-.24-.05-.32.07-.38.28a6.91,6.91,0,0,1-.29.7c-.23-.22-.45.12-.73,0a1.92,1.92,0,0,0-1-.19.94.94,0,0,1,.1.1l.17.15h.08l.17,0-.11,0a.07.07,0,0,0-.05,0c.14.2.28.41.41.62l.06-.07c.18-.18.44-.19.65-.3s.25,0,.27.17.05.61.08.91c0,.12,0,.24,0,.36s0,.3,0,.45,0,.07,0,.1h.07c.09-.45-.11-.91,0-1.4a.75.75,0,0,1,.1.2.5.5,0,0,0,.05.13,1,1,0,0,1,0,.14.62.62,0,0,0,.14.25,1.15,1.15,0,0,0-.13-.58,1.43,1.43,0,0,1,.12-1.69A.91.91,0,0,0,20.91,8.23Zm-1.71,1,.12,0a.23.23,0,0,1-.11,0l-.15,0Z"/><path class="cls-32" d="M18.23,5.14A.81.81,0,0,1,19,4.78Z"/><path class="cls-34" d="M9.25,17.41l-.07.06a.65.65,0,0,1-.33.19h0c-.17-.06-.27.56-.45,0h0c-.1.1.13.27,0,.31h0s0,0,0,0a.08.08,0,0,1-.07,0H8l-.85,0c-.43,0-.85,0-1.28.05H5.67l-1,.05H4.15c-.14,0-.16,0-.13-.1l0-.06,2.07-1.81a2.85,2.85,0,0,1,.27-.32s0,0,0,0a.54.54,0,0,1,.41-.21l.17,0a4.27,4.27,0,0,1,1.22-.35v0A3.22,3.22,0,0,0,9.25,17.41Z"/><path class="cls-35" d="M7.16,12.78a.1.1,0,0,1,0,.1h0c-.06.06-.17.06-.22.13-1,.38-2.08.63-3.12.94l-1.72.52a.18.18,0,0,0-.21-.08l-.21,0a.2.2,0,0,1-.13,0l.12-.26c0-.07.07-.15.1-.23.49-.61.84-1.32,1.28-2,.14-.2.18-.59.59-.45h0a3.29,3.29,0,0,0,1,.44,3.62,3.62,0,0,1,.66.09,13.81,13.81,0,0,1,1.5.49l.05,0a.57.57,0,0,1,.26.12A.36.36,0,0,1,7.16,12.78Z"/><path class="cls-36" d="M10,11.46a.11.11,0,0,1,0,.08c0,.09-.13.12-.2.16s-.35.12-.48.27c-.36.28-.82.36-1.2.6l-.1,0a1,1,0,0,1-.9.07,1,1,0,0,1-.26-.12l-.05,0a2.27,2.27,0,0,1-.34-.19c-.17-.11-.36-.18-.52-.3a.19.19,0,0,1-.1-.14s0-.08.1-.12a2.68,2.68,0,0,0,.86-.7l.11,0a1.43,1.43,0,0,1,.29,0h.1a4.9,4.9,0,0,1,.76.08,1.27,1.27,0,0,0,.28,0c.35,0,.71.06,1.07.12l.29,0C9.82,11.35,10,11.33,10,11.46Z"/><path class="cls-37" d="M7.09,12.77c-.67-.23-1.35-.5-2-.69L4.65,12A3.58,3.58,0,0,0,6,11.8a.23.23,0,0,0,0,.09c0,.06.07.09.14.13l.64.35c.39.24.77.51,1.23.15a.11.11,0,0,1,.13,0h0l0,.06c.09.16.22.07.33,0a.9.9,0,0,1,.54,0c-.72,0-1.37.39-2.09.4,0,0,0-.08,0-.09S7.09,12.89,7.09,12.77Z"/><path class="cls-38" d="M10.44,11.65v.54h0c0,.21-.08.35-.33.35h0c-.08-.12-.25,0-.34-.12.62-.09.65-.14.6-.66,0-.21-.08-.24-.26-.15L9.32,12a.4.4,0,0,1,.1-.15,1.2,1.2,0,0,1,.3-.15.53.53,0,0,0,.25-.2l-2.61-.28a1.84,1.84,0,0,1-.47-.06.13.13,0,0,1-.08,0L7,10.84h.08c.91.21,1.85.22,2.77.35.28,0,.39-.09.39-.36V9.29a1.23,1.23,0,0,1,0-.38.3.3,0,0,1,.09-.15c.11.09.07.21.07.32C10.43,9.94,10.43,10.79,10.44,11.65Z"/><path class="cls-39" d="M7,15.68c-.38,0-.59.33-.86.53-.16-.23.44-.29.13-.51a2,2,0,0,0-.62-.14.75.75,0,0,1-.28-.11,1.48,1.48,0,0,1,.75.1c.36.12.56.06.6-.34,0-.05,0-.1.08-.23C6.83,15.27,6.61,15.57,7,15.68Z"/><path class="cls-21" d="M3.1,14.93c-.23.13-.41-.06-.62-.06C2.71,14.75,2.89,14.93,3.1,14.93Z"/><path class="cls-40" d="M13.31,1.75l-.87,1s-.06,0-.06-.06A2,2,0,0,1,13.31,1.75Z"/><path class="cls-41" d="M12.19,3l-.79.87s-.07-.08-.06-.09C11.59,3.44,11.78,3.08,12.19,3Z"/><path class="cls-42" d="M15.42,19.67l-.09,0a0,0,0,0,1,0,0h0a.42.42,0,0,1-.22,0h0a.47.47,0,0,0-.23,0l-.07,0-.06,0c-.83-.08-1.66-.09-2.49-.23a5.31,5.31,0,0,0-.8,0c-.07,0-.11,0-.08-.07a0,0,0,0,1,0,0c.07-.07.18,0,.26,0-.15-.05-.32.05-.51-.07s-.09,0-.12.13h0a.25.25,0,0,1,0,.12l0,0c-.57.43-1.14.86-1.72,1.28-.09.07-.18.13-.18.26l-.05,0a.52.52,0,0,1-.2-.34v0a1,1,0,0,1,0-.18c0-.43,0-.87,0-1.32v-1l1.29.6a.36.36,0,0,0,0-.09c-.34-.17-.67-.36-1-.5s-.34-.29-.21-.55c0,0,0,0,0,0a.44.44,0,0,1,.28-.24.28.28,0,0,1,.13,0,2.88,2.88,0,0,0,3.55,0l.11,0c.33.08.45.44.72.59a1.75,1.75,0,0,1,.8.7l.25.25.11.09A5.18,5.18,0,0,1,15.42,19.67Z"/><path class="cls-43" d="M10.88,19.58c-.14-.1.15-.22,0-.37s.16-.1.25-.16c.05.44.43.17.63.3-.1.11-.24,0-.35.07s0,0,0,0,0,0,0,0l.26.34-.06.06a2.65,2.65,0,0,1-.29-.29C11.15,19.4,11,19.44,10.88,19.58Z"/><path class="cls-30" d="M9.15,21.3l.08-.07a4.64,4.64,0,0,1,1.38.71Z"/><path class="cls-44" d="M11.82,20l.54.56-.09.08C12.11,20.47,11.87,20.34,11.82,20Z"/><path class="cls-45" d="M12.47,20.84a1.24,1.24,0,0,1,.53.58A1.35,1.35,0,0,1,12.47,20.84Z"/><path class="cls-46" d="M9.74,4.59l-.09.07a2.34,2.34,0,0,0-.92,1.62.41.41,0,0,1-.21.3L6.77,7.91c-.13.11-.24.17-.4,0a2.5,2.5,0,0,0-1.59-.47h0c-.18-.31.07-.58.09-.87A2.54,2.54,0,0,1,5,6.16c0-.19.08-.4.14-.59a.24.24,0,0,1,0-.08l0-.12c.1-.34.44-.35.7-.39H6c1.13-.18,2.28-.3,3.42-.44a.57.57,0,0,1,.26,0A.17.17,0,0,1,9.74,4.59Z"/><path class="cls-7" d="M8.54,21.48s.05-.09.07-.1c.21,0,.08.18.14.27s.09.25-.13.24S8.39,21.65,8.54,21.48Z"/><path class="cls-47" d="M10.36,8.76c0,.75,0,1.49,0,2.24a.44.44,0,0,1,0,.17h0c0,.13-.11.19-.31.17l-.61-.06c-.36-.06-.72-.09-1.07-.12a1.27,1.27,0,0,1-.28,0l-.76-.08h-.1A.21.21,0,0,1,7,10.93a.12.12,0,0,1,0-.09,2.33,2.33,0,0,0,.26-1.37A.41.41,0,0,1,7.41,9L8.87,8c.12-.09.23-.18.35,0A3,3,0,0,0,10.36,8.76Z"/><path class="cls-48" d="M17.78,12.51a1.71,1.71,0,0,1-2.33-.95c-.07-.23.07-.36.24-.44.85-.37,1.73-.68,2.59-1a.31.31,0,0,1,.32,0A1.71,1.71,0,0,1,17.78,12.51Z"/><path class="cls-49" d="M12.46,15.75a1.49,1.49,0,0,1-1.93.87,2.11,2.11,0,0,1-.24-.53c0-.18-.07-.37-.12-.56l-.06-.38c0-.17.18-.36,0-.54,0,0,0-.12.05-.16.41-.31.73-.82,1.37-.69A1.5,1.5,0,0,1,12.46,15.75Z"/><path class="cls-50" d="M14.67,11.53l-.33.18a1.94,1.94,0,0,1-.75.24h0c-.2.06-.4.18-.48-.17-.17-.69-.37-1.38-.56-2.07-.06-.23-.07-.36.25-.35.69,0,1.38,0,2.07,0a.37.37,0,0,1,.23,0l0,0A3,3,0,0,0,14.67,11.53Z"/><path class="cls-51" d="M6.8,9.19a14.67,14.67,0,0,1-2.12,1.18,1.68,1.68,0,0,0-.53.37h0l0,0c-.29,0-.35-.15-.36-.34v0a.41.41,0,0,1,0-.11.62.62,0,0,1,0-.13,2,2,0,0,1,0-.24c.17-.5.3-1,.44-1.54a.89.89,0,0,1,.25-.48A1.78,1.78,0,0,1,6.8,9.19Z"/><path class="cls-52" d="M18.6,10.13c-1,.31-2,.74-2.94,1.13a.31.31,0,0,0-.21.3,1.67,1.67,0,0,1,.79-2.2,2.86,2.86,0,0,1,1.64,0A1.41,1.41,0,0,1,18.6,10.13Z"/><path class="cls-5" d="M17.1,5.51l-.76.16-.12,0L14.68,6l-.38.08c-.2,0-.4.06-.59.12h0a.24.24,0,0,1-.26,0,.47.47,0,0,1-.1-.1,2.7,2.7,0,0,0-.71-1.29s.05,0,.08,0a.18.18,0,0,1,.13,0c.22,0,.44.08.65.11.88.15,1.76.33,2.66.47l.81.12.06,0Z"/><path class="cls-47" d="M6.56,10.84A.45.45,0,0,1,6.3,11l-.13,0h0l-.27,0h0l-.26,0c-.33-.05-.66-.06-1-.1a1.11,1.11,0,0,1-.36,0h0l-.06,0-.06-.05h0c-.06-.11,0-.19.07-.24L6.8,9.19A1.66,1.66,0,0,1,6.56,10.84Z"/><path class="cls-53" d="M4.48,7.93a16.31,16.31,0,0,1-.61,2c-.08.09,0,.23-.09.32a.33.33,0,0,0,0,.15v0c0,.08,0,.15-.14.16s-.25-.11-.33-.23l-.08-.15A1.83,1.83,0,0,1,4.48,7.93Z"/><path class="cls-54" d="M6.28,11.16A1.86,1.86,0,0,1,3.61,11c-.08-.26.08-.24.24-.21s.14.1.21.15a.12.12,0,0,0,.12,0,.12.12,0,0,1-.12,0c0-.1,0-.12.09-.13a0,0,0,0,1,0,0c.15,0,.31,0,.44-.05a7.15,7.15,0,0,1,1.22.16l0,0s-.06,0,0,0,.25,0,.38,0l.11,0S6.35,11.08,6.28,11.16Z"/><path class="cls-55" d="M10.22,15.29c.1.45.21.89.31,1.33a.4.4,0,0,1-.34-.16A5.08,5.08,0,0,0,10,15.12c-.13.23-.12.52-.3.73a1.42,1.42,0,0,1,.18-1.63,1.46,1.46,0,0,1,1.66-.46c-.58,0-.89.49-1.31.76-.11.06,0,.14,0,.21l.28.29C10.17,15,10.14,15,10.22,15.29Z"/><path class="cls-56" d="M14.67,11.53a12.48,12.48,0,0,1-1.79,1.37c-.24.18-.41-.16-.62-.25l0-.05a.26.26,0,0,1,.29-.12h0c.1.13.17,0,.24,0s.17-.18.19-.16c.39.22.34-.24.52-.34h0a5.07,5.07,0,0,1,.91-.36Z"/><path class="cls-49" d="M10.34,16.34c0,.09-.08.1-.15.12a1.24,1.24,0,0,1-.52-.61,1.82,1.82,0,0,1,.3-.93,3.94,3.94,0,0,1,.2.61c.05.19.08.38.12.56S10.32,16.26,10.34,16.34Z"/><path class="cls-57" d="M11.46,6.52c-.06.21-.16.41-.42.4a.39.39,0,0,1-.41-.41A.38.38,0,0,1,11,6.1.43.43,0,0,1,11.46,6.52Z"/><path class="cls-58" d="M4.64,10.75c-.1.12-.24.08-.37.08h0a.28.28,0,0,0-.13,0c0,.1.15.08.1.2S4,11,4,10.94s-.28-.21-.34.07a1.06,1.06,0,0,1-.42-.78c.37.31.41.34.55,0,0,0,0-.08,0-.13s.06-.06.08-.1c0,.24-.17.48,0,.71s.15.06.22.07h.51Z"/><path class="cls-59" d="M17.88,9.37H16.24A1.46,1.46,0,0,1,17.88,9.37Z"/><path class="cls-50" d="M12.8,12.24c0,.15-.11.19-.19.24h0c-.09,0-.15.12-.24.14a.15.15,0,0,1-.09,0,1.42,1.42,0,0,1-.52-.19.16.16,0,0,1,.08-.13h0c.07-.05.18,0,.26,0A2.15,2.15,0,0,0,12.8,12.24Z"/><path class="cls-58" d="M6.56,10.84a.42.42,0,0,1-.28.32A.25.25,0,0,0,6.17,11h0a.41.41,0,0,0-.27,0h0a.41.41,0,0,1-.27,0h0c.06-.09.17,0,.25-.06A1.19,1.19,0,0,0,6.56,10.84Z"/><path class="cls-2" d="M19.34,9.28h-.5l-.09-.09.05,0c.14-.09.27,0,.4.07h0Z"/><path class="cls-60" d="M14.42,18.72l-.79-.7c.07-.1.15-.09.21,0C14,18.25,14.38,18.36,14.42,18.72Z"/><path class="cls-50" d="M12.31,9.43,13,12.06l-1.13-.28c-.18,0-.15-.18-.15-.3,0-.41,0-.81,0-1.21S12.07,9.75,12.31,9.43Z"/><path class="cls-50" d="M12.49,12.09l-.54.1c-.07,0-.15,0-.18-.06a.22.22,0,0,1,0-.16c0-.09.11-.06.18,0Z"/><path class="cls-61" d="M10.73,15.16l.65.76.08-.06-.69-.74Z"/></g></g></svg>