<?xml version="1.0" encoding="UTF-8"?>
<svg id="Camada_1" xmlns="http://www.w3.org/2000/svg" version="1.1" viewBox="0 0 22.6 17.4">
  <!-- Generator: Adobe Illustrator 29.1.0, SVG Export Plug-In . SVG Version: 2.1.0 Build 142)  -->
  <defs>
    <style>
      .st0 {
        fill: #b6cfe3;
      }

      .st1 {
        fill: none;
      }

      .st2 {
        fill: #f0f8fd;
      }

      .st3 {
        fill: #32475f;
      }

      .st4 {
        fill: #4f5e73;
      }
    </style>
  </defs>
  <g id="Camada_2">
    <g id="Camada_1-2">
      <path class="st4" d="M2.4,3.2v14.2h3.8V7.8h4.3v9.6h9.4V3.2H2.4ZM16.8,11.8h-4.3v-4h4.3v4Z"/>
      <polygon class="st4" points="5.7 1.4 5 4.7 7.5 4.7 7.9 1.4 5.7 1.4"/>
      <polygon class="st2" points="7.9 1.4 7.5 4.7 10 4.7 10.2 1.4 7.9 1.4"/>
      <polygon class="st2" points="3.5 1.4 2.5 4.7 5 4.7 5.7 1.4 3.5 1.4"/>
      <polygon class="st4" points="10.2 1.4 10 4.7 12.5 4.7 12.4 1.4 10.2 1.4"/>
      <polygon class="st4" points="1.2 1.4 0 4.7 2.5 4.7 3.5 1.4 1.2 1.4"/>
      <polygon class="st4" points="19.1 1.4 20.1 4.7 22.6 4.7 21.4 1.4 19.1 1.4"/>
      <polygon class="st2" points="12.4 1.4 12.5 4.7 15.1 4.7 14.6 1.4 12.4 1.4"/>
      <polygon class="st4" points="14.6 1.4 15.1 4.7 17.6 4.7 16.9 1.4 14.6 1.4"/>
      <polygon class="st2" points="16.9 1.4 17.6 4.7 20.1 4.7 19.1 1.4 16.9 1.4"/>
      <path class="st3" d="M0,4.7c0,.6.6,1.1,1.2,1,.6,0,1.2-.4,1.3-1H0Z"/>
      <path class="st0" d="M2.5,4.6c0,.6.6,1.1,1.2,1,.6,0,1.2-.4,1.2-1h-2.5Z"/>
      <path class="st0" d="M7.5,4.6c0,.6.6,1.1,1.3,1,.6,0,1.2-.4,1.3-1h-2.5Z"/>
      <path class="st0" d="M12.6,4.7c0,.6.6,1.1,1.2,1,.6,0,1.2-.4,1.3-1h-2.5Z"/>
      <path class="st0" d="M17.6,4.7c0,.6.6,1.1,1.2,1,.6,0,1.2-.4,1.2-1h-2.5Z"/>
      <path class="st3" d="M5,4.7c0,.6.6,1.1,1.2,1,.6,0,1.2-.4,1.3-1h-2.5Z"/>
      <path class="st3" d="M10,4.7c0,.6.6,1.1,1.2,1,.6,0,1.2-.4,1.2-1h-2.5Z"/>
      <path class="st3" d="M15.1,4.7c0,.6.6,1.1,1.3,1,.6,0,1.2-.4,1.2-1h-2.5Z"/>
      <path class="st3" d="M20.1,4.7c0,.6.6,1.1,1.3,1,.6,0,1.2-.4,1.2-1h-2.5Z"/>
      <line class="st1" x1="5.7" y1="1.5" x2="3.4" y2="1.5"/>
      <line class="st1" x1="7.9" y1="1.5" x2="5.7" y2="1.5"/>
      <line class="st1" x1="10.1" y1="1.5" x2="7.9" y2="1.5"/>
      <line class="st1" x1="12.4" y1="1.5" x2="10.1" y2="1.5"/>
      <line class="st1" x1="14.6" y1="1.5" x2="12.4" y2="1.5"/>
      <line class="st1" x1="16.9" y1="1.5" x2="14.6" y2="1.5"/>
      <line class="st1" x1="3.4" y1="1.5" x2="1.2" y2="1.5"/>
      <line class="st1" x1="21.3" y1="1.5" x2="19.1" y2="1.5"/>
      <line class="st1" x1="19.1" y1="1.5" x2="16.9" y2="1.5"/>
      <rect class="st3" x="1.2" y=".9" width="2.2" height=".6"/>
      <rect class="st0" x="3.4" y=".9" width="2.2" height=".6"/>
      <rect class="st3" x="5.7" y=".9" width="2.2" height=".6"/>
      <rect class="st0" x="7.9" y=".9" width="2.2" height=".6"/>
      <rect class="st3" x="10.1" y=".9" width="2.2" height=".6"/>
      <rect class="st0" x="12.4" y=".9" width="2.2" height=".6"/>
      <rect class="st3" x="14.6" y=".9" width="2.2" height=".6"/>
      <rect class="st0" x="16.9" y=".9" width="2.2" height=".6"/>
      <rect class="st3" x="19.1" y=".9" width="2.2" height=".6"/>
    </g>
  </g>
</svg>