<svg xmlns="http://www.w3.org/2000/svg" viewBox="0 0 24.13 25.78"><defs><style>.cls-1{fill:#f1653b;}.cls-2{fill:#9bca3b;}.cls-3{fill:#3ec0c3;}.cls-4{fill:#f05927;}</style></defs><title>loja integrada</title><g id="Camada_2" data-name="Camada 2"><g id="Camada_1-2" data-name="Camada 1"><path class="cls-1" d="M24.13,18.63A2.73,2.73,0,0,1,22.68,21c-2.75,1.55-5.52,3.06-8.29,4.57-1,.52-1.62.12-1.63-1,0-3.08,0-6.16,0-9.24a3,3,0,0,1,1.59-2.71q4.09-2.28,8.22-4.5c.89-.48,1.29-.31,1.55.59-.15,1.51-.06,3-.06,4.53C24.07,15,24,16.83,24.13,18.63Z"/><path class="cls-2" d="M11.35,19.93c0,1.55,0,3.1,0,4.65,0,1.13-.62,1.49-1.62,1q-4.05-2.21-8.07-4.44A3,3,0,0,1,0,18.28c0-3.05,0-6.1,0-9.15,0-1.26.56-1.59,1.67-1,2.7,1.47,5.4,2.94,8.08,4.44a3,3,0,0,1,1.6,2.77C11.35,16.88,11.36,18.4,11.35,19.93Z"/><path class="cls-3" d="M11.93,11.42a4.17,4.17,0,0,1-2.5-.85c-2.34-1.23-4.66-2.5-7-3.75-.41-.22-.86-.43-.89-1s.48-.79.9-1L10.3.51A3.56,3.56,0,0,1,14,.5l7.69,4.15c.42.22.91.41.92,1s-.48.79-.89,1L13.81,11A3.21,3.21,0,0,1,11.93,11.42Z"/><path class="cls-4" d="M24.13,18.63c-.19-.16-.14-.39-.14-.6,0-2.91,0-5.83,0-8.74,0-.21,0-.44.14-.6Z"/></g></g></svg>