<?xml version="1.0" encoding="UTF-8"?>
<svg id="Camada_1" xmlns="http://www.w3.org/2000/svg" version="1.1" viewBox="0 0 22.6 17.4">
  <!-- Generator: Adobe Illustrator 29.1.0, SVG Export Plug-In . SVG Version: 2.1.0 Build 142)  -->
  <defs>
    <style>
      .st0 {
        fill: #9fa3ac;
      }

      .st1 {
        fill: #b6cfe3;
      }

      .st2 {
        fill: none;
      }

      .st3 {
        fill: #f0f8fd;
      }

      .st4 {
        fill: #32475f;
      }

      .st5 {
        fill: #4f5e73;
      }
    </style>
  </defs>
  <g id="Camada_2">
    <g id="Camada_1-2">
      <path class="st5" d="M2.4,3v14.2h4V7.6h9.4v9.6h4.1V3H2.4Z"/>
      <polygon class="st5" points="5.7 1.1 5 4.4 7.5 4.4 7.9 1.1 5.7 1.1"/>
      <polygon class="st3" points="7.9 1.1 7.5 4.4 10 4.4 10.2 1.1 7.9 1.1"/>
      <polygon class="st3" points="3.5 1.1 2.5 4.4 5 4.4 5.7 1.1 3.5 1.1"/>
      <polygon class="st5" points="10.2 1.1 10 4.4 12.5 4.4 12.4 1.1 10.2 1.1"/>
      <polygon class="st5" points="1.2 1.1 0 4.4 2.5 4.4 3.5 1.1 1.2 1.1"/>
      <polygon class="st5" points="19.1 1.1 20.1 4.4 22.6 4.4 21.4 1.1 19.1 1.1"/>
      <polygon class="st3" points="12.4 1.1 12.5 4.4 15.1 4.4 14.6 1.1 12.4 1.1"/>
      <polygon class="st5" points="14.6 1.1 15.1 4.4 17.6 4.4 16.9 1.1 14.6 1.1"/>
      <polygon class="st3" points="16.9 1.1 17.6 4.4 20.1 4.4 19.1 1.1 16.9 1.1"/>
      <path class="st4" d="M0,4.4c0,.6.6,1.1,1.2,1,.6,0,1.2-.4,1.3-1H0Z"/>
      <path class="st1" d="M2.5,4.4c0,.6.6,1.1,1.2,1,.6,0,1.2-.4,1.2-1h-2.5Z"/>
      <path class="st1" d="M7.5,4.4c0,.6.6,1.1,1.3,1,.6,0,1.2-.4,1.3-1h-2.5Z"/>
      <path class="st1" d="M12.6,4.4c0,.6.6,1.1,1.2,1,.6,0,1.2-.4,1.3-1h-2.5Z"/>
      <path class="st1" d="M17.6,4.4c0,.6.6,1.1,1.2,1,.6,0,1.2-.4,1.2-1h-2.5Z"/>
      <path class="st4" d="M5,4.4c0,.6.6,1.1,1.2,1,.6,0,1.2-.4,1.3-1h-2.5Z"/>
      <path class="st4" d="M10,4.4c0,.6.6,1.1,1.2,1,.6,0,1.2-.4,1.2-1h-2.5Z"/>
      <path class="st4" d="M15.1,4.4c0,.6.6,1.1,1.3,1,.6,0,1.2-.4,1.2-1h-2.5Z"/>
      <path class="st4" d="M20.1,4.4c0,.6.6,1.1,1.3,1,.6,0,1.2-.4,1.2-1h-2.5Z"/>
      <line class="st2" x1="5.7" y1="1.3" x2="3.4" y2="1.3"/>
      <line class="st2" x1="7.9" y1="1.3" x2="5.7" y2="1.3"/>
      <line class="st2" x1="10.1" y1="1.3" x2="7.9" y2="1.3"/>
      <line class="st2" x1="12.4" y1="1.3" x2="10.1" y2="1.3"/>
      <line class="st2" x1="14.6" y1="1.3" x2="12.4" y2="1.3"/>
      <line class="st2" x1="16.9" y1="1.3" x2="14.6" y2="1.3"/>
      <line class="st2" x1="3.4" y1="1.3" x2="1.2" y2="1.3"/>
      <line class="st2" x1="21.3" y1="1.3" x2="19.1" y2="1.3"/>
      <line class="st2" x1="19.1" y1="1.3" x2="16.9" y2="1.3"/>
      <rect class="st4" x="1.2" y=".7" width="2.2" height=".6"/>
      <rect class="st1" x="3.4" y=".7" width="2.2" height=".6"/>
      <rect class="st4" x="5.7" y=".7" width="2.2" height=".6"/>
      <rect class="st1" x="7.9" y=".7" width="2.2" height=".6"/>
      <rect class="st4" x="10.1" y=".7" width="2.2" height=".6"/>
      <rect class="st1" x="12.4" y=".7" width="2.2" height=".6"/>
      <rect class="st4" x="14.6" y=".7" width="2.2" height=".6"/>
      <rect class="st1" x="16.9" y=".7" width="2.2" height=".6"/>
      <rect class="st4" x="19.1" y=".7" width="2.2" height=".6"/>
    </g>
  </g>
  <rect class="st0" x="6.4" y="7.6" width="9.4" height="9.6"/>
</svg>