<?xml version="1.0" encoding="UTF-8"?><svg id="Camada_2" xmlns="http://www.w3.org/2000/svg" viewBox="0 0 10.04 20.88"><defs><style>.cls-1{fill:#fb0023;}</style></defs><g id="Camada_2-2"><g><path class="cls-1" d="M6.85,10.69c-.12,.11-.27,.19-.45,.25-.18,.06-.37,.11-.58,.15-.21,.04-.42,.07-.65,.1-.23,.03-.45,.06-.68,.1-.21,.04-.42,.09-.63,.16-.21,.07-.39,.16-.54,.27-.15,.11-.28,.26-.37,.43-.09,.17-.14,.39-.14,.66s.05,.46,.14,.64c.09,.17,.22,.31,.38,.41,.16,.1,.34,.17,.56,.21,.21,.04,.43,.06,.66,.06,.56,0,.99-.09,1.29-.28,.31-.19,.53-.41,.68-.67,.15-.26,.24-.52,.27-.79,.03-.27,.05-.48,.05-.64v-1.06ZM.32,8.6c.04-.66,.21-1.21,.5-1.65,.29-.44,.66-.79,1.12-1.06,.45-.27,.96-.45,1.52-.57,.56-.11,1.13-.17,1.7-.17,.52,0,1.04,.04,1.57,.11,.53,.07,1.02,.22,1.45,.43,.44,.21,.8,.51,1.08,.89,.28,.38,.42,.88,.42,1.5v5.36c0,.46,.03,.91,.08,1.33,.05,.42,.15,.74,.28,.96h-2.87c-.05-.16-.1-.32-.13-.49-.03-.17-.06-.33-.07-.51-.45,.46-.98,.79-1.59,.98-.61,.19-1.23,.28-1.87,.28-.49,0-.95-.06-1.37-.18-.43-.12-.8-.31-1.12-.56-.32-.25-.57-.57-.75-.96C.09,13.91,0,13.45,0,12.92c0-.58,.1-1.07,.31-1.44,.21-.38,.47-.68,.8-.91,.33-.23,.7-.39,1.12-.51,.42-.11,.84-.2,1.26-.27,.42-.07,.84-.12,1.25-.16,.41-.04,.78-.1,1.1-.18,.32-.08,.57-.2,.76-.35,.19-.15,.27-.37,.26-.67,0-.3-.05-.55-.15-.73-.1-.18-.23-.32-.4-.42-.17-.1-.36-.17-.58-.2-.22-.03-.46-.05-.71-.05-.56,0-1,.12-1.31,.36-.32,.24-.5,.64-.56,1.19H.32Z"/><rect class="cls-1" width="10.04" height="2.68"/><rect class="cls-1" y="18.2" width="10.04" height="2.68"/></g></g></svg>